#tb 0: 1/1000
0,          0,          0,        0,  2995632, 0xd99bcd57
0,        202,        202,        0,  2995632, 0xd99bcd57
0,        268,        268,        0,  2995632, 0xd99bcd57
0,        334,        334,        0,  2995632, 0xd99bcd57
0,        399,        399,        0,  2995632, 0xd99bcd57
0,        466,        466,        0,  2995632, 0xd99bcd57
0,        532,        532,        0,  2995632, 0xd99bcd57
0,        598,        598,        0,  2995632, 0xd99bcd57
0,        665,        665,        0,  2995632, 0xd99bcd57
0,        731,        731,        0,  2995632, 0xd99bcd57
0,        798,        798,        0,  2995632, 0xd99bcd57
0,        863,        863,        0,  2995632, 0xd99bcd57
0,        929,        929,        0,  2995632, 0xd99bcd57
0,        996,        996,        0,  2995632, 0xd99bcd57
0,       1061,       1061,        0,  2995632, 0xd99bcd57
0,       1127,       1127,        0,  2995632, 0xd99bcd57
0,       1192,       1192,        0,  2995632, 0xd99bcd57
0,       1258,       1258,        0,  2995632, 0xd99bcd57
0,       1323,       1323,        0,  2995632, 0xd99bcd57
0,       1389,       1389,        0,  2995632, 0xd99bcd57
0,       1457,       1457,        0,  2995632, 0xd99bcd57
0,       1522,       1522,        0,  2995632, 0xd99bcd57
0,       1589,       1589,        0,  2995632, 0xd99bcd57
0,       1655,       1655,        0,  2995632, 0xd99bcd57
0,       1721,       1721,        0,  2995632, 0xd99bcd57
0,       1788,       1788,        0,  2995632, 0xd99bcd57
0,       1855,       1855,        0,  2995632, 0xd99bcd57
0,       1922,       1922,        0,  2995632, 0xd99bcd57
0,       1987,       1987,        0,  2995632, 0xbeb35375
0,       2054,       2054,        0,  2995632, 0xbeb35375
0,       2120,       2120,        0,  2995632, 0xbeb35375
0,       2185,       2185,        0,  2995632, 0xbeb35375
0,       2252,       2252,        0,  2995632, 0xbeb35375
0,       2318,       2318,        0,  2995632, 0xbeb35375
0,       2383,       2383,        0,  2995632, 0xbeb35375
0,       2452,       2452,        0,  2995632, 0xcaae4108
0,       2517,       2517,        0,  2995632, 0xcaae4108
0,       2584,       2584,        0,  2995632, 0xcaae4108
0,       2650,       2650,        0,  2995632, 0xcaae4108
0,       2715,       2715,        0,  2995632, 0xcaae4108
0,       2782,       2782,        0,  2995632, 0xcaae4108
0,       2849,       2849,        0,  2995632, 0x8aa38ce0
0,       2915,       2915,        0,  2995632, 0x8aa38ce0
0,       2981,       2981,        0,  2995632, 0x8aa38ce0
0,       3048,       3048,        0,  2995632, 0x8aa38ce0
0,       3114,       3114,        0,  2995632, 0x8aa38ce0
0,       3179,       3179,        0,  2995632, 0x8aa38ce0
0,       3246,       3246,        0,  2995632, 0x05885d30
0,       3311,       3311,        0,  2995632, 0xd3eee8e8
0,       3378,       3378,        0,  2995632, 0x0b82ea84
0,       3444,       3444,        0,  2995632, 0x0b82ea84
0,       3510,       3510,        0,  2995632, 0x19f32c5e
0,       3576,       3576,        0,  2995632, 0x19f32c5e
0,       3642,       3642,        0,  2995632, 0x19f32c5e
0,       3710,       3710,        0,  2995632, 0x478b455c
0,       3777,       3777,        0,  2995632, 0x08256940
0,       3843,       3843,        0,  2995632, 0x08256940
0,       3909,       3909,        0,  2995632, 0x08256940
0,       3977,       3977,        0,  2995632, 0x188c88fc
0,       4044,       4044,        0,  2995632, 0x7ff65403
0,       4117,       4117,        0,  2995632, 0xef8686db
0,       4186,       4186,        0,  2995632, 0x8ca34321
0,       4252,       4252,        0,  2995632, 0x722e18d1
0,       4317,       4317,        0,  2995632, 0x722e18d1
0,       4383,       4383,        0,  2995632, 0x0f0c1574
0,       4449,       4449,        0,  2995632, 0x0f0c1574
0,       4515,       4515,        0,  2995632, 0x0f0c1574
0,       4582,       4582,        0,  2995632, 0x440c5180
0,       4647,       4647,        0,  2995632, 0x440c5180
0,       4714,       4714,        0,  2995632, 0x440c5180
0,       4781,       4781,        0,  2995632, 0x440c5180
0,       4846,       4846,        0,  2995632, 0x440c5180
0,       4912,       4912,        0,  2995632, 0x440c5180
0,       4977,       4977,        0,  2995632, 0x440c5180
0,       5044,       5044,        0,  2995632, 0x440c5180
0,       5110,       5110,        0,  2995632, 0x50b9656c
0,       5176,       5176,        0,  2995632, 0x50b9656c
0,       5243,       5243,        0,  2995632, 0x50b9656c
0,       5309,       5309,        0,  2995632, 0x50b9656c
0,       5376,       5376,        0,  2995632, 0x29c17deb
0,       5442,       5442,        0,  2995632, 0x6f868d8a
0,       5508,       5508,        0,  2995632, 0x2ea88d55
0,       5575,       5575,        0,  2995632, 0xe0208c8d
0,       5641,       5641,        0,  2995632, 0x25084a8f
0,       5709,       5709,        0,  2995632, 0xd0e3bddd
0,       5776,       5776,        0,  2995632, 0xc9c3e0ff
0,       5842,       5842,        0,  2995632, 0xcbefe0b1
0,       5911,       5911,        0,  2995632, 0xd7b0e00d
0,       5977,       5977,        0,  2995632, 0x2dc9dff8
0,       6044,       6044,        0,  2995632, 0x1ea9a835
0,       6158,       6158,        0,  2995632, 0x9be91cc7
0,       6225,       6225,        0,  2995632, 0x27c31d09
0,       6292,       6292,        0,  2995632, 0xc4d65c0c
0,       6358,       6358,        0,  2995632, 0xc4d65c0c
0,       6423,       6423,        0,  2995632, 0xc4d65c0c
0,       6490,       6490,        0,  2995632, 0xc4d65c0c
0,       6556,       6556,        0,  2995632, 0xc4d65c0c
0,       6623,       6623,        0,  2995632, 0xceb7bde7
0,       6689,       6689,        0,  2995632, 0xfbace8b0
0,       6754,       6754,        0,  2995632, 0x18ab6b35
0,       6821,       6821,        0,  2995632, 0x18ab6b35
0,       6887,       6887,        0,  2995632, 0x18ab6b35
0,       6954,       6954,        0,  2995632, 0x18ab6b35
0,       7019,       7019,        0,  2995632, 0x18ab6b35
0,       7084,       7084,        0,  2995632, 0x18ab6b35
0,       7150,       7150,        0,  2995632, 0x18ab6b35
0,       7215,       7215,        0,  2995632, 0x18ab6b35
0,       7282,       7282,        0,  2995632, 0x18ab6b35
0,       7348,       7348,        0,  2995632, 0x18ab6b35
0,       7415,       7415,        0,  2995632, 0x18ab6b35
0,       7480,       7480,        0,  2995632, 0x18ab6b35
0,       7545,       7545,        0,  2995632, 0x18ab6b35
0,       7612,       7612,        0,  2995632, 0x18ab6b35
0,       7678,       7678,        0,  2995632, 0x18ab6b35
0,       7745,       7745,        0,  2995632, 0x18ab6b35
0,       7810,       7810,        0,  2995632, 0x18ab6b35
0,       7876,       7876,        0,  2995632, 0x18ab6b35
0,       7943,       7943,        0,  2995632, 0x18ab6b35
0,       8009,       8009,        0,  2995632, 0x18ab6b35
0,       8076,       8076,        0,  2995632, 0x18ab6b35
0,       8141,       8141,        0,  2995632, 0x18ab6b35
0,       8206,       8206,        0,  2995632, 0x18ab6b35
0,       8273,       8273,        0,  2995632, 0x18ab6b35
0,       8339,       8339,        0,  2995632, 0x18ab6b35
0,       8406,       8406,        0,  2995632, 0x18ab6b35
0,       8472,       8472,        0,  2995632, 0x18ab6b35
0,       8539,       8539,        0,  2995632, 0x18ab6b35
0,       8605,       8605,        0,  2995632, 0x68f6d0e7
